<?xml version="1.0"?>
<svg width="1024" height="1024" xmlns="http://www.w3.org/2000/svg" xmlns:svg="http://www.w3.org/2000/svg">

 <g class="layer">
  <title>Layer 1</title>
  <rect fill="#000000" height="1163" id="svg_9" stroke-width="5" width="1163" x="-55.5" y="-36.5"/>
  <rect fill="#d4ffaa" height="1023" id="svg_5" stroke-width="5" width="1023" x="0.5" y="0.5"/>
  <g id="surface1">
   <path d="m377.000003,44.000001c-175.450973,0 -319.000002,143.549029 -319.000002,319.000002c0,175.450973 143.549029,319.000002 319.000002,319.000002c175.450973,0 319.000002,-143.549029 319.000002,-319.000002c0,-175.450973 -143.549029,-319.000002 -319.000002,-319.000002zm0,616.069239c-163.486529,0 -297.069238,-133.582709 -297.069238,-297.069238c0,-163.486529 133.582709,-297.069238 297.069238,-297.069238c163.486529,0 297.069238,133.582709 297.069238,297.069238c0,163.486529 -133.582709,297.069238 -297.069238,297.069238zm0,0" fill="rgb(0%,0%,0%)" fill-rule="nonzero" id="svg_1"/>
   <path d="m377.000003,102.814654c-143.549029,0 -260.185348,116.63632 -260.185348,260.185348c0,143.549029 116.63632,260.185348 260.185348,260.185348c143.549029,0 260.185348,-116.63632 260.185348,-260.185348c0,-143.549029 -116.63632,-260.185348 -260.185348,-260.185348zm10.966597,497.442086l0,-30.904097c0,-5.979792 -4.984375,-10.964167 -10.966597,-10.964167c-5.982222,0 -10.966597,4.984375 -10.966597,10.964167l0,30.904097c-122.613682,-4.984375 -221.305765,-103.676458 -226.29014,-226.29014l30.904097,0c5.979792,0 10.964167,-4.984375 10.964167,-10.966597c0,-5.982222 -4.984375,-10.966597 -10.964167,-10.966597l-30.904097,0c4.984375,-122.613682 103.676458,-221.305765 226.29014,-226.29014l0,30.904097c0,5.979792 4.984375,10.964167 10.966597,10.964167c5.982222,0 10.966597,-4.984375 10.966597,-10.964167l0,-30.904097c122.613682,5.982222 221.305765,104.671876 226.29014,226.29014l-30.904097,0c-5.979792,0 -10.964167,4.984375 -10.964167,10.966597c0,5.982222 4.984375,10.966597 10.964167,10.966597l30.904097,0c-4.984375,122.613682 -103.676458,221.305765 -226.29014,226.29014zm0,0" fill="rgb(0%,0%,0%)" fill-rule="nonzero" id="svg_2"/>
   <path d="m377.000003,326.116113c-19.9375,0 -36.883889,15.948542 -36.883889,36.883889c0,20.935347 15.948542,36.883889 36.883889,36.883889c20.935347,0 36.883889,-15.948542 36.883889,-36.883889c0,-20.935347 -16.946389,-36.883889 -36.883889,-36.883889zm0,51.837014c-7.975486,0 -14.953125,-6.977639 -14.953125,-14.953125c0,-7.975486 6.977639,-14.953125 14.953125,-14.953125c7.975486,0 14.953125,6.977639 14.953125,14.953125c0,7.975486 -6.977639,14.953125 -14.953125,14.953125zm0,0" fill="rgb(0%,0%,0%)" fill-rule="nonzero" id="svg_3"/>
   <path d="m552.450976,353.031252l-118.629584,-45.857222l-45.854792,-119.625001c-1.995694,-3.986528 -5.982222,-6.977639 -9.96875,-6.977639c-4.984375,0 -8.973333,2.991111 -9.96875,6.977639l-45.857222,119.625001l-119.625001,45.857222c-3.986528,1.993264 -6.977639,5.982222 -6.977639,9.96875c0,4.984375 2.991111,8.970903 6.977639,9.96875l119.625001,45.857222l44.859375,119.625001c1.993264,3.986528 5.982222,6.977639 9.96875,6.977639c4.984375,0 8.970903,-2.991111 9.96875,-6.977639l45.857222,-119.625001l119.625001,-45.857222c3.986528,-1.993264 6.977639,-5.982222 6.977639,-9.96875c0,-3.986528 -2.991111,-8.970903 -6.977639,-9.96875zm-131.589445,46.852639c-2.988681,0.997847 -4.984375,2.991111 -5.979792,5.982222l-37.881736,97.694237l-36.883889,-96.698819c-0.997847,-2.988681 -2.991111,-4.984375 -5.982222,-5.979792l-97.694237,-37.881736l97.694237,-36.883889c2.991111,-0.997847 4.984375,-2.991111 5.982222,-5.982222l36.883889,-97.694237l36.883889,97.694237c0.997847,2.991111 2.991111,4.984375 5.982222,5.982222l96.69639,36.883889l-95.700972,36.883889zm0,0" fill="rgb(0%,0%,0%)" fill-rule="nonzero" id="svg_4"/>
  </g>
  <text fill="#0000ff" font-family="Sans-serif" font-size="610" id="svg_7" stroke="#ffe2e2" stroke-width="0" text-anchor="middle" x="654.5" xml:space="preserve" y="916.5">?</text>
  <text fill="#ff00ff" font-family="Sans-serif" font-size="600" id="svg_6" stroke="#ffe2e2" stroke-width="0" text-anchor="middle" x="662.5" xml:space="preserve" y="907.5">?</text>
  <text fill="#ff7f00" font-family="Sans-serif" font-size="600" id="svg_8" stroke="#ffe2e2" stroke-width="0" text-anchor="middle" x="674.5" xml:space="preserve" y="902.5">?</text>
 </g>
</svg>